# xmcd CD database file generated by Grip 3.0.7
# 
# Track frame offsets:
#       150
#       18495
#       32070
#       49189
#       63067
#       70399
#       93519
#       105758
#       107731
#       136392
#       146710
#       165121
#       185557
#       201963
#       205272
#       208419
#       209802
#       219417
#       240609
#       242706
#       269813
#       280748
#       295857
# 
# Disc length: 4239 seconds
# 
# Revision: 3
# Processed by: cddbd v1.5.2PL0 Copyright (c) Steve Scherf et al.
# Submitted via: Grip 3.0.7
# 
DISCID=6a108d17
DTITLE=G.F. Handel / Messiah - Disc 1
DYEAR=2002
DGENRE=Classical
TTITLE0=Overture
TTITLE1=Comfort Ye My People
TTITLE2=Every Valley Shall Be Exalted
TTITLE3=And The Glory Of The Lord
TTITLE4=Thus Saith The Lord
TTITLE5=But Who May Abide The Day OfHis Coming?
TTITLE6=And He Shall Purify
TTITLE7=Behold, A Virgin Shall Conceive
TTITLE8=O Thou That Tellest Good Tidings To Zion
TTITLE9=For, Behold, A Darkness Shall Cover The Earth
TTITLE10=The People That Walked In Darkness
TTITLE11=For Unto Us A Child Is Born
TTITLE12=Pastoral Symphony
TTITLE13=There Were Shepherds Abiding In The Field
TTITLE14=And The Angel Said Unto Them
TTITLE15=And Sudddenly There Was With The Angel
TTITLE16=Glory To God
TTITLE17=Rejoice Greatly, O Daughter Of Zion
TTITLE18=Then Shall The Eyes Of The Blind Be Opened
TTITLE19=He Shall Feed His Flock Like A Shepherd
TTITLE20=His Yoke Is Easy, And His Burden Is Light
TTITLE21=Behold The Lamb Of God
TTITLE22=He Was Despised
EXTD=
EXTT0=
EXTT1=Tenor Recitative
EXTT2=Tenor Aria
EXTT3=Chorus
EXTT4=Bass Recitative
EXTT5=Bass Aria
EXTT6=Chorus
EXTT7=Contralto Recitative
EXTT8=Contralto Aria And Chorus
EXTT9=Bass Recitative
EXTT10=Bass Aria
EXTT11=Chorus
EXTT12=
EXTT13=Soprano Recitative
EXTT14=Soprano Recitative
EXTT15=Soprano Recitative
EXTT16=Chorus
EXTT17=Soprano Aria
EXTT18=Contralto Recitative
EXTT19=Contralto Aria And Soprano Aria
EXTT20=Chorus
EXTT21=Chorus
EXTT22=Contralto Aria
PLAYORDER=
.
